<svg width="34" height="42" viewBox="0 0 34 42" fill="none" xmlns="http://www.w3.org/2000/svg">
<path d="M27.9409 21.8565C27.8941 16.6643 32.1942 14.1382 32.3908 14.0206C29.9555 10.4715 26.1809 9.98663 24.8544 9.94797C21.6842 9.61449 18.609 11.8441 16.9941 11.8441C15.3469 11.8441 12.86 9.98019 10.1797 10.035C6.73068 10.0881 3.50402 12.0842 1.73436 15.1837C-1.91779 21.5037 0.806012 30.7912 4.30505 35.8997C6.05537 38.4032 8.10064 41.1951 10.7777 41.0968C13.3967 40.9905 14.375 39.4294 17.5356 39.4294C20.6672 39.4294 21.5859 41.0968 24.3161 41.034C27.1269 40.9905 28.8966 38.5208 30.5857 35.9963C32.6084 33.1304 33.4207 30.3047 33.4529 30.1597C33.3885 30.1371 27.9957 28.0782 27.9409 21.8565ZM22.7834 6.58741C24.192 4.82658 25.1558 2.43101 24.8883 0C22.8494 0.0902164 20.2997 1.40963 18.8314 3.1318C17.5324 4.64937 16.372 7.13676 16.6717 9.47594C18.962 9.64671 21.3135 8.32085 22.7834 6.58741Z" fill="white"/>
</svg>
