<svg width="19" height="25" viewBox="0 0 19 25" fill="none" xmlns="http://www.w3.org/2000/svg">
<path d="M1.88787 0.680387C1.7649 0.680387 1.64102 0.692595 1.51767 0.717245C1.02259 0.816233 0.596004 1.10403 0.316569 1.52762C-0.0467008 2.07832 -0.100564 2.76477 0.171746 3.3663L3.98851 12.841L0.140492 22.3931C-0.247525 23.3612 0.21725 24.4675 1.1763 24.8601C1.75521 25.097 2.4106 25.0302 2.92957 24.6813L18.1646 14.4181C19.0254 13.8382 19.2593 12.6595 18.6861 11.7906C18.5416 11.5717 18.3578 11.3888 18.1397 11.247L2.93 1.00086C2.61674 0.789824 2.25637 0.680387 1.88787 0.680387ZM1.88593 24.0498C1.76775 24.0498 1.64905 24.0271 1.53615 23.9808C1.05836 23.7853 0.827703 23.2319 1.02197 22.7473L4.94119 13.0184C4.98707 12.9046 4.98707 12.7773 4.94119 12.6634L1.0489 3.00137C1.04601 2.99429 1.04301 2.98726 1.03983 2.98032C0.899996 2.67642 0.926025 2.32892 1.10951 2.05073C1.24826 1.84045 1.45939 1.69767 1.70396 1.64879C1.94625 1.60034 2.19329 1.65003 2.3992 1.78872L17.6122 12.0371C17.6147 12.0389 17.6172 12.0405 17.6198 12.0421C17.7286 12.1125 17.8206 12.2039 17.8931 12.3138C18.1806 12.7497 18.0644 13.3402 17.6338 13.6303L2.39925 23.8932C2.24506 23.9968 2.06618 24.0498 1.88593 24.0498Z" fill="#2563EA"/>
<path fill-rule="evenodd" clip-rule="evenodd" d="M4.97266 6.38673L14.5548 12.8418L4.97266 19.2969L7.57302 12.8418L4.97266 6.38673Z" fill="#2563EA"/>
</svg>
