<svg width="34" height="37" viewBox="0 0 34 37" fill="none" xmlns="http://www.w3.org/2000/svg">
<path d="M0 2.24681V34.3634C0.000215164 34.4331 0.0209975 34.5012 0.059741 34.5591C0.0984845 34.617 0.153464 34.6622 0.217787 34.689C0.282109 34.7158 0.35291 34.723 0.421312 34.7097C0.489713 34.6964 0.552671 34.6633 0.602289 34.6143L17.325 18.3059L0.602289 1.99592C0.552671 1.947 0.489713 1.91382 0.421312 1.90053C0.35291 1.88725 0.282109 1.89446 0.217787 1.92125C0.153464 1.94804 0.0984845 1.99323 0.059741 2.05115C0.0209975 2.10906 0.000215164 2.17713 0 2.24681Z" fill="white"/>
<path d="M24.3369 11.6047L3.36876 0.0525456L3.35568 0.0451906C2.99447 -0.150942 2.65124 0.337755 2.94707 0.622146L19.3838 16.3389L24.3369 11.6047Z" fill="white"/>
<path d="M2.94901 35.9896C2.65154 36.274 2.99477 36.7627 3.35762 36.5666L3.37069 36.5592L24.3372 25.007L19.3841 20.2712L2.94901 35.9896Z" fill="white"/>
<path d="M32.8014 16.2628L26.946 13.0381L21.4404 18.3059L26.946 23.5712L32.8014 20.3489C34.3941 19.4688 34.3941 17.143 32.8014 16.2628Z" fill="white"/>
</svg>
